<?xml version="1.0" encoding="UTF-8"?>
<svg version="1.1" xmlns="http://www.w3.org/2000/svg" width="512" height="512">
<path d="M0 0 C2.5625 2.125 2.5625 2.125 5 5 C18.93652993 18.79540051 39.8834834 19.25015244 58.42358398 19.32568359 C72.09000034 19.19405851 85.51362532 17.04923903 99 15 C121.91380924 11.52421096 144.80901898 10.31685827 164.70458984 24.18847656 C173.29971044 30.6104912 184.09192317 39.71984877 188.140625 49.85546875 C188.56601562 50.91701172 188.56601562 50.91701172 189 52 C190.99866686 52.34123581 192.99902542 52.6725678 195 53 C205.89780198 58.67309548 211.96845237 67.36615234 215.9765625 78.78125 C218.31659055 86.91667461 218.30957979 94.6069479 218 103 C218.99 102.67 219.98 102.34 221 102 C223.39490986 101.93029948 225.79167691 101.91551997 228.1875 101.9375 C229.45980469 101.94652344 230.73210937 101.95554687 232.04296875 101.96484375 C233.01878906 101.97644531 233.99460937 101.98804687 235 102 C235.02578125 101.42894531 235.0515625 100.85789062 235.078125 100.26953125 C235.58659028 93.00078902 236.84605882 85.61400018 240 79 C243.43984626 76.39422106 245.69747365 75.63121203 250 76 C250.72767003 74.76115681 251.43154815 73.50831659 252.125 72.25 C252.51945312 71.55390625 252.91390625 70.8578125 253.3203125 70.140625 C254.2558161 67.99533945 254.2558161 67.99533945 253.1484375 65.96875 C252.76945312 65.3190625 252.39046875 64.669375 252 64 C251.34770563 59.10779226 251.42276978 56.24311562 254.3125 52.1875 C255.50974983 50.76419601 256.74344559 49.37123025 258 48 C258.77730469 47.13117187 259.55460937 46.26234375 260.35546875 45.3671875 C275.25884934 29.56123881 296.93032618 18.20630953 318.7980957 16.82299805 C348.10013754 16.19902142 371.49975917 22.11523303 394 42 C394.62390625 42.54011719 395.2478125 43.08023438 395.890625 43.63671875 C411.8637592 58.45292034 421.48823379 80.45733146 423 102 C423.9178125 101.96519531 424.835625 101.93039063 425.78125 101.89453125 C435.57052407 101.67859138 442.9860612 102.12181774 450.29127502 109.09292603 C456.94878104 116.52323613 457.73778134 124.5553496 457.62890625 134.1640625 C457.63131821 135.3961142 457.63373016 136.62816589 457.63621521 137.89755249 C457.63524059 140.48772417 457.6219399 143.07791769 457.59692383 145.66796875 C457.56253903 149.62051387 457.57630834 153.57082959 457.59570312 157.5234375 C457.58880594 160.04948863 457.57913473 162.57553403 457.56640625 165.1015625 C457.57136612 166.27570709 457.57632599 167.44985168 457.58143616 168.65957642 C457.46318542 176.93532334 456.16879394 182.21505168 450.75 188.6875 C443.39726929 194.8704781 437.86711989 197.16027394 428.1875 197.0625 C427.02605469 197.05347656 425.86460937 197.04445312 424.66796875 197.03515625 C423.34732422 197.01775391 423.34732422 197.01775391 422 197 C421.98582031 197.54785156 421.97164063 198.09570312 421.95703125 198.66015625 C420.75263771 218.67912992 409.60691872 238.36308924 395.37109375 252.0546875 C389.43079098 256.92828022 382.66611004 261.40456322 375.625 264.46875 C372.82418005 265.72440636 372.82418005 265.72440636 372.1953125 268.26171875 C372.17210937 269.06222656 372.14890625 269.86273438 372.125 270.6875 C372.08632813 271.49574219 372.04765625 272.30398438 372.0078125 273.13671875 C372.00394531 274.05904297 372.00394531 274.05904297 372 275 C372.99 274.67 373.98 274.34 375 274 C385.54651256 272.92382525 394.0107798 278.95457692 402.1875 284.875 C403.03763672 285.47441406 403.88777344 286.07382812 404.76367188 286.69140625 C420.56952828 297.9446878 420.56952828 297.9446878 423 305 C423.14755849 306.6633866 423.24929083 308.33127801 423.3125 310 C423.65319668 315.05745298 425.20026851 316.6683058 428.90234375 319.921875 C445.09074232 335.9595436 449.2562351 359.88083288 449.41051674 381.62800789 C449.41701071 384.95782501 449.40862471 388.28738253 449.3984375 391.6171875 C449.40046314 393.96933075 449.40337863 396.32147338 449.40713501 398.6736145 C449.41153008 403.57348686 449.40521521 408.47319389 449.39111328 413.37304688 C449.37396624 419.63365668 449.38391561 425.89388211 449.40183067 432.15447807 C449.41269639 436.99993767 449.40921032 441.8453068 449.4014473 446.6907692 C449.39945596 448.99910656 449.4018668 451.30745232 449.40888596 453.61577988 C449.41655279 456.8428691 449.40482532 460.06934303 449.38818359 463.29638672 C449.39425629 464.23582626 449.40032898 465.17526581 449.40658569 466.14317322 C449.2967081 477.7153118 445.5881785 487.05023765 437.9375 495.6875 C414.90094363 517.07512391 363.36366182 512.52542712 333.58203125 512.39111328 C329.76432075 512.3740227 325.94723825 512.38421699 322.12954903 512.40143299 C237.3920693 512.72481531 237.3920693 512.72481531 218 494 C210.5161519 485.15853773 208.54004787 475.43902982 208.61181641 464.09692383 C208.60393097 462.53616623 208.60393097 462.53616623 208.59588623 460.94387817 C208.58276999 457.53143944 208.59139805 454.11947409 208.6015625 450.70703125 C208.5995386 448.31345023 208.59662454 445.91986982 208.59286499 443.52629089 C208.58845229 438.51738598 208.59483602 433.508642 208.60888672 428.49975586 C208.62593129 422.11615753 208.61616038 415.73293899 208.59816933 409.34935474 C208.5872634 404.40674546 208.5908097 399.46422429 208.5985527 394.52161217 C208.60053835 392.16995892 208.5981537 389.81829738 208.59111404 387.46665382 C208.55635129 372.58481887 209.10295245 359.17596547 214 345 C213.44779785 345.01160156 212.8955957 345.02320313 212.32666016 345.03515625 C204.64089755 345.12226467 197.03513293 344.58377944 189.375 344 C188.08464844 343.90460938 186.79429687 343.80921875 185.46484375 343.7109375 C182.30963781 343.47721854 179.15472071 343.24016501 176 343 C176.00276538 343.70199713 176.00553076 344.40399426 176.00837994 345.12726402 C176.07474277 362.23841194 176.12433058 379.34952701 176.15543652 396.46077538 C176.1708804 404.73577889 176.19192232 413.0106963 176.22631836 421.28564453 C176.25629684 428.50128605 176.275593 435.71686517 176.28226548 442.93256724 C176.28616349 446.75034413 176.29527213 450.56794259 176.31719017 454.38566208 C176.33768916 457.98568191 176.34380701 461.58545133 176.33932304 465.18552399 C176.34053026 467.12309478 176.35660176 469.06063887 176.3732605 470.99813843 C176.33072565 483.11605036 173.73805778 492.74487304 165.37109375 501.75390625 C152.38574463 513.77514592 134.14244739 512.15870352 117.65625 512.1328125 C116.11413559 512.13348859 114.57202128 512.13446114 113.02990723 512.13571167 C109.81956962 512.13717431 106.60926009 512.13508074 103.39892578 512.13037109 C99.32122816 512.12467471 95.2435964 512.12796147 91.16590118 512.13394356 C87.98797119 512.13758821 84.81005635 512.13639281 81.63212585 512.13381577 C80.13010144 512.13315725 78.62807556 512.13393644 77.12605286 512.13629532 C61.11762012 512.15592998 47.32163939 511.7414267 33 504 C32.34644531 504.61488281 32.34644531 504.61488281 31.6796875 505.2421875 C31.08414063 505.78101563 30.48859375 506.31984375 29.875 506.875 C29.29492188 507.40867187 28.71484375 507.94234375 28.1171875 508.4921875 C22.18672121 512.71572991 15.61513974 512.36608401 8.625 512.375 C7.62210938 512.39949219 6.61921875 512.42398438 5.5859375 512.44921875 C-2.26194497 512.48003504 -7.55357631 511.05801721 -13.4609375 505.81640625 C-14.40839844 504.70072266 -14.40839844 504.70072266 -15.375 503.5625 C-16.02210937 502.82128906 -16.66921875 502.08007812 -17.3359375 501.31640625 C-20.58172941 496.79820296 -21.25131417 492.98432659 -21.26742554 487.47013855 C-21.27195665 486.82787065 -21.27648776 486.18560276 -21.28115618 485.5238722 C-21.29377969 483.37936629 -21.29218111 481.23511504 -21.29052734 479.09057617 C-21.2965144 477.5493131 -21.30332035 476.00805302 -21.31088257 474.46679688 C-21.32854444 470.28225176 -21.33323838 466.09778847 -21.33451414 461.91320968 C-21.33593765 459.29269487 -21.34021132 456.67220072 -21.34550858 454.05169106 C-21.36401844 444.89097403 -21.37217911 435.73031518 -21.37060547 426.56958008 C-21.36940792 418.06332996 -21.39043155 409.55733517 -21.4220928 401.05114955 C-21.44837188 393.72685574 -21.45896773 386.40264462 -21.45769465 379.07830411 C-21.45718787 374.71378028 -21.46271054 370.34948275 -21.48405075 365.98500633 C-21.50362682 361.8685592 -21.50342761 357.75254941 -21.48901749 353.63608551 C-21.48695113 352.13827934 -21.49149787 350.64044442 -21.5037384 349.14268684 C-21.60577468 335.77389971 -19.66642497 322.55798546 -13.25 310.625 C-12.90710937 309.96564453 -12.56421875 309.30628906 -12.2109375 308.62695312 C-9.11549769 302.85971947 -5.42078465 297.83141089 -1 293 C-0.40960938 292.31808594 0.18078125 291.63617188 0.7890625 290.93359375 C14.87443453 275.61949777 34.61331422 270.26077716 54 265 C52.76636719 264.29037109 52.76636719 264.29037109 51.5078125 263.56640625 C43.8949082 259.05668349 37.29711225 254.28627384 31 248 C30.30261719 247.31421875 29.60523438 246.6284375 28.88671875 245.921875 C19.16218567 235.7252772 8 217.34621112 8 203 C7.01 202.95875 6.02 202.9175 5 202.875 C-1.85545123 201.87784346 -7.42664331 196.31856854 -11.625 191.08203125 C-20.6881798 177.3585232 -21.47591823 160.24636377 -21.43359375 144.3203125 C-21.43817675 142.77204159 -21.44348842 141.2237727 -21.44947815 139.67550659 C-21.45832395 136.45692596 -21.45608538 133.23859456 -21.44604492 130.02001953 C-21.43685235 126.75999289 -21.44379289 123.50068222 -21.46655273 120.24072266 C-21.72901732 82.49281088 -21.72901732 82.49281088 -15.85327148 68.21313477 C-14.15662706 63.81253915 -16.40932682 59.64225742 -18 55.4375 C-23.27246954 41.4615789 -23.116771 23.72999974 -17 10 C-12.953112 3.08964817 -8.64629873 -1.65422283 0 0 Z M208 190 C207.5875 190.53109375 207.175 191.0621875 206.75 191.609375 C202.15301226 197.23247607 197.80312056 200.43473725 190.90234375 202.68359375 C187.93996736 204.73353388 187.70541153 207.27582523 186.75 210.6875 C182.74537647 223.82190117 176.27920578 234.84539745 167 245 C165.91912109 246.20269531 165.91912109 246.20269531 164.81640625 247.4296875 C159.49179039 253.06751606 153.67264358 257.09751451 147 261 C145.33292713 261.99932269 143.66613761 262.99911877 142 264 C142.33 264.66 142.66 265.32 143 266 C145.39891509 266.65887165 145.39891509 266.65887165 148.37031555 267.07571411 C149.53547699 267.26357483 150.70063843 267.45143555 151.90110779 267.64498901 C153.83591759 267.94277756 153.83591759 267.94277756 155.80981445 268.24658203 C157.17303388 268.46285998 158.53612952 268.67991943 159.89910889 268.89770508 C163.61075254 269.48840293 167.32407367 270.06786293 171.03781152 270.64522791 C174.91932547 271.25042914 178.79930981 271.86528457 182.67948914 272.47897339 C189.19969747 273.508767 195.72094039 274.5317801 202.24291992 275.55029297 C210.61439569 276.85767228 218.98407426 278.17620475 227.35323811 279.49829292 C234.54367057 280.63407485 241.73492571 281.76461506 248.92630744 282.89436865 C251.23942546 283.25799237 253.55242638 283.62235387 255.86541176 283.98682022 C259.50182603 284.55949079 263.13873868 285.12888798 266.77606201 285.695755 C268.74845942 286.00384368 270.72039031 286.31491442 272.69230652 286.62606812 C274.45273788 286.89939972 274.45273788 286.89939972 276.24873352 287.17825317 C277.26878133 287.3378911 278.28882914 287.49752903 279.33978748 287.66200447 C282.21441677 288.08402836 282.21441677 288.08402836 286 288 C286 280.74 286 273.48 286 266 C283.6075 264.741875 281.215 263.48375 278.75 262.1875 C258.43607443 251.01939935 245.54716027 232.69592141 238.73828125 210.76953125 C237.77666381 207.16219387 237.02244239 203.54272313 236.39453125 199.86328125 C236.17563326 197.99386854 236.17563326 197.99386854 235 197 C233.12553333 196.80557956 231.25038917 196.61612545 229.37280273 196.45458984 C221.33792479 195.7430578 214.91571331 194.45188425 208 190 Z " fill="#272727" transform="translate(38,0)"/>
<path d="M0 0 C1.61666465 0.00561209 3.23333448 0.00987453 4.8500061 0.01286316 C9.05528455 0.02418525 13.26024009 0.05353951 17.46539307 0.0869751 C21.77636347 0.1179525 26.0873873 0.13142693 30.3984375 0.14648438 C38.82045883 0.17842471 47.24222023 0.22946292 55.6640625 0.29296875 C56.05150635 1.40901489 56.05150635 1.40901489 56.44677734 2.54760742 C56.96812256 4.02064331 56.96812256 4.02064331 57.5 5.5234375 C57.8407959 6.49434326 58.1815918 7.46524902 58.53271484 8.46557617 C61.92167317 16.9350467 67.63710727 21.30021477 75.6640625 25.29296875 C82.50582482 27.57355619 92.07236839 27.62452364 98.8671875 25.10546875 C101.45151976 23.73051415 101.45151976 23.73051415 103.68359375 22.19140625 C105.6640625 21.29296875 105.6640625 21.29296875 107.75390625 21.9765625 C113.41336748 25.8768456 116.61734153 31.63865245 119.8515625 37.54296875 C120.18446289 38.13811279 120.51736328 38.73325684 120.86035156 39.34643555 C125.64867847 48.39974207 127.11385035 57.58533007 127.06811523 67.7277832 C127.07497849 68.81215164 127.08184174 69.89652008 127.08891296 71.01374817 C127.10706314 74.56138575 127.10336248 78.10857645 127.09765625 81.65625 C127.10222151 84.13722374 127.10752811 86.61819622 127.11354065 89.09916687 C127.12244692 94.2810889 127.12007428 99.46285657 127.11010742 104.64477539 C127.09858157 111.28376788 127.11889775 117.92223134 127.14802456 124.56115437 C127.16636252 129.67668533 127.16609952 134.79208869 127.16038704 139.90764427 C127.16023374 142.35605808 127.16628491 144.80448049 127.17867851 147.25286293 C127.19355217 150.67062428 127.18293942 154.08739662 127.16577148 157.50512695 C127.18027344 159.0177713 127.18027344 159.0177713 127.19506836 160.56097412 C127.13272532 166.48669093 126.50963452 169.72733332 122.6640625 174.29296875 C122.1071875 175.01484375 121.5503125 175.73671875 120.9765625 176.48046875 C115.10622384 181.081545 107.35295481 181.81719133 100.16796875 182.86328125 C97.67547017 183.16664322 97.67547017 183.16664322 95.6640625 184.29296875 C49.44349795 192.65200702 -27.41788843 199.51429827 -70.60546875 177.63671875 C-74.66169863 174.15497636 -76.9042342 170.17816696 -77.70280266 164.8411026 C-77.84693309 162.04578294 -77.86523136 159.2764557 -77.83764648 156.47753906 C-77.84304947 155.4227536 -77.84845245 154.36796814 -77.85401917 153.28121948 C-77.86647662 149.81088783 -77.85002984 146.34139089 -77.83203125 142.87109375 C-77.83218635 140.44504757 -77.83367719 138.01900115 -77.83644104 135.59295654 C-77.83782387 130.51238018 -77.8252895 125.4320865 -77.80249023 120.3515625 C-77.77416717 113.86446435 -77.77682827 107.37783781 -77.78958035 100.89070511 C-77.7965641 95.88043245 -77.78871646 90.87026718 -77.77632332 85.86000824 C-77.77183073 83.46959598 -77.77145269 81.07917209 -77.77538872 78.68875885 C-77.77832583 75.33426142 -77.76167259 71.98039401 -77.73999023 68.62597656 C-77.74449188 67.65310699 -77.74899353 66.68023743 -77.75363159 65.67788696 C-77.56783004 48.22274231 -70.35304134 32.79385293 -58.3359375 20.29296875 C-52.66838658 14.76057405 -46.51782176 10.55930962 -39.5234375 6.91796875 C-38.92072021 6.59610596 -38.31800293 6.27424316 -37.69702148 5.94262695 C-25.76912553 0.0878464 -12.96370541 -0.1343937 0 0 Z " fill="#E2E8ED" transform="translate(342.3359375,306.70703125)"/>
<path d="M0 0 C3.98008035 0.45060921 7.95885513 0.91190088 11.9375 1.375 C13.61295898 1.56449219 13.61295898 1.56449219 15.32226562 1.7578125 C20.98931632 2.42256918 26.51069583 3.2312144 32.06176758 4.55371094 C34.81261269 5.1871087 37.57779719 5.56759283 40.375 5.9375 C45.99015664 6.70950865 51.58991771 7.54700149 57.1875 8.4375 C57.99558105 8.56576172 58.80366211 8.69402344 59.63623047 8.82617188 C62.84714331 9.33666702 66.05774549 9.849077 69.26806641 10.36328125 C83.82789176 12.6943903 98.4111896 14.85838816 113 17 C113 17.66 113 18.32 113 19 C111.43745395 20.06386114 109.82140432 21.04936476 108.1875 22 C100.00211515 27.0776776 92.83447722 32.9643411 87.625 41.125 C85.59698095 43.84890794 84.68984728 44.89523029 81.27685547 45.41357422 C79.71281982 45.35967529 79.71281982 45.35967529 78.1171875 45.3046875 C76.95880371 45.26972168 75.80041992 45.23475586 74.60693359 45.19873047 C68.89586259 44.88406878 63.19998659 44.47315793 57.5 44 C48.64896597 43.33103682 39.81465694 42.75073877 30.9375 42.625 C30.06996094 42.59921875 29.20242187 42.5734375 28.30859375 42.546875 C23.88580624 42.42031331 23.88580624 42.42031331 20.27976227 44.64298439 C18.64209504 47.65917522 18.62367684 49.7443094 18.62145996 53.17318726 C18.60915596 55.0742347 18.60915596 55.0742347 18.59660339 57.01368713 C18.60256178 58.41586413 18.60878086 59.81804004 18.61523438 61.22021484 C18.61112874 62.69873981 18.60566791 64.17726155 18.59895325 65.65577698 C18.5872278 68.83860749 18.58474406 72.02126459 18.58930969 75.20411301 C18.59611748 80.23851117 18.58025425 85.27268109 18.56091309 90.30703735 C18.52304425 100.99634592 18.51025831 111.68563464 18.5 122.375 C18.48892676 133.9081171 18.47356241 145.44112917 18.42928743 156.97417414 C18.4109396 161.97693936 18.40703591 166.97944389 18.41422272 171.98223472 C18.41574613 175.09751475 18.40495071 178.21266476 18.39084435 181.32790947 C18.38684655 182.77023897 18.38795846 184.21259328 18.39461708 185.65491295 C18.40302286 187.62754649 18.39125065 189.60023496 18.37854004 191.57284546 C18.37747128 193.2270453 18.37747128 193.2270453 18.37638092 194.91466331 C17.74850624 200.06158944 15.83682438 203.19955929 12.125 206.75 C6.97458826 210.45829646 2.59471859 211.3515182 -3.6640625 211.6171875 C-4.43827545 211.65472137 -5.2124884 211.69225525 -6.01016235 211.73092651 C-16.30193339 212.17345553 -26.60404798 212.14927685 -36.90332031 212.13037109 C-40.36267499 212.12501907 -43.82189927 212.13034523 -47.28125 212.13671875 C-53.85500985 212.14035513 -60.42691341 212.09343168 -67 212 C-68.47466736 211.98012024 -68.47466736 211.98012024 -69.97912598 211.95983887 C-72.7087548 211.91145153 -75.43556158 211.83329952 -78.1640625 211.7421875 C-78.94848724 211.72858185 -79.73291199 211.7149762 -80.54110718 211.70095825 C-86.61813608 211.44042066 -92.10580155 209.80242472 -96.56680298 205.48287964 C-99.61099525 201.91192655 -101.12340745 199.58450699 -101.13130188 194.95205688 C-101.13531006 194.10525864 -101.13931824 193.25846039 -101.14344788 192.38600159 C-101.14291916 191.45505173 -101.14239044 190.52410187 -101.1418457 189.56494141 C-101.14532013 188.5859639 -101.14879456 187.60698639 -101.15237427 186.5983429 C-101.15973853 184.46757198 -101.16508033 182.33679335 -101.16866493 180.20601273 C-101.1758147 176.83579486 -101.19146958 173.46572392 -101.21000671 170.09555054 C-101.26255032 160.51163738 -101.31047503 150.92780414 -101.32592773 141.34375 C-101.33599255 135.48633366 -101.36527912 129.62928564 -101.40724754 123.77201462 C-101.41958393 121.53689735 -101.42467402 119.30172812 -101.42244911 117.06657791 C-101.42010399 113.94193271 -101.44220305 110.81834963 -101.4699707 107.69384766 C-101.46336929 106.76694626 -101.45676788 105.84004486 -101.44996643 104.88505554 C-101.48729712 99.79363135 -101.48729712 99.79363135 -103.90592957 95.42514038 C-107.46313951 93.00424591 -109.76722566 93.52969174 -114 94 C-116.14961901 95.5574753 -116.89640899 96.4294901 -117.37358761 99.05747032 C-117.37270814 100.24928634 -117.37270814 100.24928634 -117.37181091 101.46517944 C-117.37856842 102.37922043 -117.38532593 103.29326141 -117.39228821 104.23500061 C-117.38456894 105.23559006 -117.37684967 106.2361795 -117.36889648 107.26708984 C-117.37266296 108.32263565 -117.37642944 109.37818146 -117.38031006 110.4657135 C-117.38675243 112.76070644 -117.38640327 115.05572605 -117.38012505 117.35071945 C-117.37104144 120.98184874 -117.38120803 124.61245872 -117.39674377 128.24356079 C-117.43691896 138.56828977 -117.43804481 148.89297934 -117.43579102 159.21777344 C-117.43573997 165.53016448 -117.45488384 171.84227609 -117.48512459 178.15459061 C-117.49597362 181.73380635 -117.48380394 185.31249412 -117.47129822 188.89169312 C-117.48020126 191.08584113 -117.49027516 193.27998481 -117.50170898 195.47412109 C-117.49196548 196.47066208 -117.48222198 197.46720306 -117.47218323 198.49394226 C-117.51717128 202.8140018 -117.59701468 205.32341158 -119.84364319 209.09536743 C-123.43744591 212.26964438 -126.74172432 212.21177662 -131.375 212.3125 C-133.05722656 212.36857422 -133.05722656 212.36857422 -134.7734375 212.42578125 C-138.65385586 211.91371636 -140.23562425 210.70908823 -143 208 C-144.34532769 205.30934462 -144.13520217 203.22454834 -144.14717102 200.21054077 C-144.15432632 198.97720505 -144.16148163 197.74386932 -144.16885376 196.47315979 C-144.17169433 195.09848048 -144.17440602 193.72380089 -144.17700195 192.34912109 C-144.18326627 190.90682308 -144.18991304 189.46452668 -144.19691467 188.02223206 C-144.21798644 183.27264536 -144.22832974 178.52305827 -144.23828125 173.7734375 C-144.24232965 172.13500578 -144.24644659 170.49657423 -144.25063133 168.85814285 C-144.26970108 161.14915222 -144.2839203 153.44017118 -144.2922433 145.73116148 C-144.30197978 136.86052864 -144.3281971 127.99014774 -144.36874419 119.11960351 C-144.39905595 112.24972887 -144.41372691 105.37992571 -144.41702431 98.50998557 C-144.41936054 94.41479105 -144.42813034 90.31986505 -144.45348549 86.22474289 C-144.47703169 82.35868349 -144.48089492 78.49306415 -144.47072411 74.62695122 C-144.47023476 73.22105494 -144.47637354 71.81513506 -144.49028015 70.40930748 C-144.66744592 51.40840634 -139.63086752 34.2236727 -126.39355469 20.18237305 C-116.02279969 9.75742159 -100.3333892 1.19520472 -85.28515625 0.95703125 C-84.15400391 0.97830078 -84.15400391 0.97830078 -83 1 C-82.74347656 1.75023437 -82.48695312 2.50046875 -82.22265625 3.2734375 C-78.16090139 14.13213568 -71.94098691 22.19411879 -61.66796875 27.81640625 C-50.67668317 32.6924817 -39.46941579 33.40344585 -28 30 C-27.19691406 29.76667969 -26.39382812 29.53335937 -25.56640625 29.29296875 C-16.43485609 26.17314116 -8.74440361 19.64716527 -4.05151367 11.17480469 C-2.95303433 8.90286273 -2.14554367 6.65057411 -1.37109375 4.25 C-1.11126709 3.45078125 -0.85144043 2.6515625 -0.58374023 1.828125 C-0.29478882 0.92320312 -0.29478882 0.92320312 0 0 Z " fill="#E94357" transform="translate(178,283)"/>
<path d="M0 0 C0.0093457 0.79172607 0.01869141 1.58345215 0.02832031 2.39916992 C0.08209344 5.99590708 0.16572963 9.59135352 0.25 13.1875 C0.26417969 14.43337891 0.27835937 15.67925781 0.29296875 16.96289062 C0.32519531 18.16494141 0.35742188 19.36699219 0.390625 20.60546875 C0.4220459 22.26292114 0.4220459 22.26292114 0.45410156 23.95385742 C1.12043105 27.67201173 2.31543892 29.37585056 5 32 C8.61200367 32.51600052 10.90866588 32.55874059 14.18066406 30.88354492 C16.82038383 28.15066274 16.54386151 26.1139286 16.609375 22.36328125 C16.64160156 21.06455078 16.67382812 19.76582031 16.70703125 18.42773438 C16.72177586 17.05599405 16.73609331 15.68424907 16.75 14.3125 C16.77815875 12.92899889 16.80808608 11.54553256 16.83984375 10.16210938 C16.91066109 6.77467979 16.96330176 3.38794333 17 0 C22.70049812 0.4373548 27.95102619 1.01075327 33.375 2.9375 C34.84066406 3.44603516 34.84066406 3.44603516 36.3359375 3.96484375 C38.64541598 4.86222175 40.79630729 5.87585263 43 7 C43.029729 8.64983887 43.029729 8.64983887 43.06005859 10.33300781 C43.13619901 14.41836222 43.22490336 18.50336438 43.31738281 22.58837891 C43.35563771 24.3555607 43.3904967 26.12281944 43.421875 27.89013672 C43.46760152 30.43224563 43.52558289 32.97382648 43.5859375 35.515625 C43.59748871 36.30430969 43.60903992 37.09299438 43.62094116 37.90557861 C43.73296247 43.27133725 43.73296247 43.27133725 46 48 C49.09173752 49.54586876 51.59429552 49.29359521 55 49 C57.83268412 46.87769896 58.87221639 45.66497769 59.54589844 42.15917969 C59.5668457 41.09086914 59.58779297 40.02255859 59.609375 38.921875 C59.64160156 37.76171875 59.67382812 36.6015625 59.70703125 35.40625 C59.72121094 34.1996875 59.73539063 32.993125 59.75 31.75 C59.77964844 30.52796875 59.80929687 29.3059375 59.83984375 28.046875 C59.91052402 25.03118356 59.96323175 22.0162645 60 19 C74.53725027 30.60698042 83.48689373 48.68173405 86 67 C86.15129901 69.95756459 86.16721539 72.91151849 86.17700195 75.87255859 C86.18357315 76.74506256 86.19014435 77.61756653 86.19691467 78.51651001 C86.21656299 81.39382023 86.22829552 84.27107829 86.23828125 87.1484375 C86.24235678 88.1379604 86.2464323 89.12748329 86.25063133 90.14699173 C86.27146275 95.39144936 86.28577337 100.6358811 86.29516602 105.88037109 C86.30618407 111.25738266 86.34053909 116.63397513 86.38033772 122.01083946 C86.40668099 126.17885017 86.41487377 130.34676401 86.41844749 134.51485062 C86.42327308 136.4944909 86.43476962 138.47412807 86.45348549 140.45368576 C86.66224161 164.01019071 81.76871882 184.58148815 65.1875 202.25 C58.19279628 208.86661163 50.50036796 213.08374903 41.5 216.3125 C40.82461182 216.55500488 40.14922363 216.79750977 39.45336914 217.04736328 C20.13695258 223.56679785 -2.69665265 223.40644281 -22 217 C-23.09183594 216.63777344 -24.18367188 216.27554688 -25.30859375 215.90234375 C-40.98411638 210.01154225 -53.83097174 198.11217693 -61 183 C-65.41592188 172.15664147 -68.14507295 161.82895228 -68.16113281 150.09570312 C-68.16609772 149.21998657 -68.17106262 148.34427002 -68.17617798 147.4420166 C-68.1907377 144.55508627 -68.19759312 141.66821097 -68.203125 138.78125 C-68.20595238 137.7892308 -68.20877975 136.79721161 -68.21169281 135.77513123 C-68.22666456 130.52000667 -68.23590531 125.26490939 -68.24023438 120.00976562 C-68.24569989 114.61469822 -68.26969309 109.21988563 -68.29820633 103.82489777 C-68.31695398 99.64838973 -68.32204484 95.47194143 -68.32357025 91.2953949 C-68.32657265 89.30853389 -68.3345182 87.32167331 -68.34775543 85.33485413 C-68.41051729 75.18606558 -68.26330376 65.76463672 -65.64471436 55.90026855 C-64.81245255 52.15631167 -64.12028689 48.52693061 -66.09375 45.1015625 C-66.5578125 44.61429688 -67.021875 44.12703125 -67.5 43.625 C-68.7375 42.325625 -68.7375 42.325625 -70 41 C-68.35 38.03 -66.7 35.06 -65 32 C-63.618125 32.103125 -62.23625 32.20625 -60.8125 32.3125 C-57.2605865 32.29590227 -56.33012312 32.25765707 -53.4375 30 C-52.633125 29.01 -51.82875 28.02 -51 27 C-49.5972224 25.54894325 -48.17964946 24.11208875 -46.75 22.6875 C-46.06421875 21.99011719 -45.3784375 21.29273437 -44.671875 20.57421875 C-43 19 -43 19 -42 19 C-41.98541748 19.76666992 -41.97083496 20.53333984 -41.95581055 21.32324219 C-41.8813078 24.79933493 -41.78465354 28.27446968 -41.6875 31.75 C-41.66494141 32.9565625 -41.64238281 34.163125 -41.61914062 35.40625 C-41.5659668 37.14648438 -41.5659668 37.14648438 -41.51171875 38.921875 C-41.48553467 39.99018555 -41.45935059 41.05849609 -41.43237305 42.15917969 C-40.95303192 45.30859433 -40.19504939 46.72536363 -38 49 C-36.05637998 49.51780555 -36.05637998 49.51780555 -34 49.3125 C-33.319375 49.28800781 -32.63875 49.26351562 -31.9375 49.23828125 C-29.78554857 49.03855107 -29.78554857 49.03855107 -27 48 C-25.52472988 44.0162535 -25.77259724 39.71581736 -25.68359375 35.515625 C-25.66281265 34.70003113 -25.64203156 33.88443726 -25.62062073 33.04412842 C-25.55538703 30.44616895 -25.49636232 27.84811087 -25.4375 25.25 C-25.39428986 23.485667 -25.35067478 21.72134387 -25.30664062 19.95703125 C-25.19973255 15.63812116 -25.09839173 11.31911216 -25 7 C-23.72418601 6.35356718 -22.447383 5.70908606 -21.17016602 5.06542969 C-20.45925308 4.70632507 -19.74834015 4.34722046 -19.0158844 3.97723389 C-16.70137534 2.85523667 -14.40039968 1.99010341 -11.9375 1.25 C-11.16277344 1.00765625 -10.38804687 0.7653125 -9.58984375 0.515625 C-6.35852818 -0.12771385 -3.28576111 -0.08043479 0 0 Z " fill="#E2E8ED" transform="translate(358,35)"/>
<path d="M0 0 C0.34611328 1.23363281 0.34611328 1.23363281 0.69921875 2.4921875 C3.92263688 13.52570568 7.58760039 22.93237087 16 31 C16.5878125 31.60328125 17.175625 32.2065625 17.78125 32.828125 C23.71338578 37.86573237 29.77043776 37.46117636 37.17285156 36.95507812 C41.24700381 36.72643518 43.56045089 36.79491143 47.33203125 38.5546875 C51.83605144 42.68282313 54.13483385 46.35896287 54.4609375 52.41796875 C54.45663054 54.00806472 54.42713791 55.59825321 54.375 57.1875 C54.35775879 58.02611572 54.34051758 58.86473145 54.32275391 59.72875977 C53.99104605 71.29512327 53.00854733 84.34685568 44.07421875 92.828125 C40.72034948 95.0944289 38.30082565 95.95988991 34.25 96.5 C30.95084881 96.72942007 30.95084881 96.72942007 28.75 98.8125 C26.61618148 102.69909803 25.81805481 106.44273027 24.8359375 110.74609375 C21.27937981 124.59007765 13.91237748 135.89995273 4 146 C3.38511719 146.639375 2.77023438 147.27875 2.13671875 147.9375 C-10.59539224 160.15160219 -29.52811712 165.42826774 -46.75 165.25 C-47.71156006 165.24250732 -48.67312012 165.23501465 -49.66381836 165.22729492 C-70.62383119 164.91256945 -89.73831045 159.15401116 -104.76391602 143.90063477 C-115.0449781 132.82412607 -120.61223897 118.82737138 -123.09375 104.1015625 C-124.12300658 100.57902058 -125.07161224 99.17818242 -128 97 C-130.36611435 96.28213259 -130.36611435 96.28213259 -132.875 96.0625 C-137.8636655 95.19681981 -140.5397197 93.87221843 -144 90 C-151.37194991 78.62757215 -152.47018505 61.1629652 -151 48 C-149.10023791 42.51179841 -146.20128361 39.5592423 -141 37 C-137.95721974 36.65202247 -134.99830576 36.62498703 -131.9375 36.6015625 C-127.87574505 35.76976694 -126.48150697 34.28679319 -124 31 C-123.31257703 28.37398674 -122.87125069 26.09880367 -122.5625 23.4375 C-121.44433137 16.10173864 -119.67674806 8.95908221 -115 3 C-111.58948315 2.01541733 -108.90848791 1.9708241 -105.43359375 2.55859375 C-89.02109361 4.9984044 -72.82160807 5.31496306 -56.25 5.3125 C-55.11770966 5.31563202 -53.98541931 5.31876404 -52.81881714 5.32199097 C-36.9153212 5.34973924 -21.89683131 4.89095425 -6.48828125 0.5859375 C-4 0 -4 0 0 0 Z " fill="#FBAC9C" transform="translate(185,91)"/>
<path d="M0 0 C2.09024608 -0.00015523 4.18049244 -0.00164821 6.27073669 -0.00440979 C10.6356185 -0.00578879 15.00016972 0.00668172 19.36499023 0.02954102 C24.93860525 0.05794147 30.51167243 0.05517665 36.0853281 0.0424509 C40.39638385 0.03547164 44.70731463 0.04330837 49.01835442 0.05570793 C51.07269752 0.06019935 53.12705415 0.0605796 55.18139839 0.05664253 C58.0594411 0.05370771 60.93674796 0.07034449 63.81469727 0.09204102 C64.64978317 0.08753937 65.48486908 0.08303772 66.34526062 0.07839966 C76.18563649 0.20066004 84.97834721 3.06625859 92.49609375 9.49609375 C101.88198843 19.50163973 103.68185423 29.02533331 103.74609375 42.37109375 C103.77703125 43.96630859 103.77703125 43.96630859 103.80859375 45.59375 C103.84635212 53.19262239 103.17378023 58.22336583 98.24609375 64.24609375 C91.32859267 69.90586736 84.98713522 69.93450611 76.35375977 69.90014648 C75.1463916 69.90700974 73.93902344 69.91387299 72.69506836 69.92094421 C69.39948406 69.93606259 66.10425627 69.93771912 62.80865216 69.93200183 C60.05032134 69.92890092 57.29204117 69.93501241 54.53371757 69.94104058 C48.02300478 69.95506383 41.51242325 69.95354294 35.00170898 69.94213867 C28.30043586 69.93065951 21.59956305 69.94473438 14.89834267 69.97153515 C9.12994283 69.99373551 3.36166826 70.00031981 -2.40677124 69.99445873 C-5.84545584 69.99109826 -9.28388389 69.99344305 -12.72253227 70.01070976 C-16.55938246 70.02561053 -20.39535475 70.01494767 -24.23217773 69.99780273 C-25.36126053 70.0074707 -26.49034332 70.01713867 -27.65364075 70.02709961 C-34.39863235 69.96408613 -38.76004733 69.10551295 -44.50390625 65.49609375 C-51.19139306 58.45663395 -50.86932459 52.21321219 -50.87890625 42.87109375 C-50.90339844 41.63746094 -50.92789062 40.40382813 -50.953125 39.1328125 C-50.98925185 27.80102235 -48.30088303 18.89005483 -40.50390625 10.49609375 C-28.85207856 -0.56674045 -15.07399438 -0.09145503 0 0 Z " fill="#292929" transform="translate(340.50390625,340.50390625)"/>
<path d="M0 0 C3.74977269 1.08546051 7.02402854 2.52294954 10.4375 4.375 C25.38249774 11.99401846 41.62277717 12.20885737 58 12.1875 C59.17301163 12.18709213 59.17301163 12.18709213 60.36972046 12.18667603 C71.71059998 12.16852132 82.78248103 11.77442151 94 10 C139.69837183 2.80347711 139.69837183 2.80347711 158.75 15.6875 C167.09435626 22.15467887 173.33280327 30.1622091 179.37109375 38.75 C181.80721531 42.11500244 182.47519651 42.89326031 186.6875 43.75 C192.27997285 45.06945821 196.08851967 48.11789259 199.25390625 52.890625 C203.78760605 61.38922094 204.2787879 69.54795919 204.125 79 C204.11597656 80.06089844 204.10695312 81.12179688 204.09765625 82.21484375 C204.07427524 84.81013638 204.04150556 87.40494465 204 90 C203.03320312 89.67644531 202.06640625 89.35289063 201.0703125 89.01953125 C195.94765098 87.55130994 190.78992888 87.67553395 185.49609375 87.69726562 C181.26731738 87.58673268 179.51863729 87.41490984 176.109375 84.6875 C169.35383867 76.0804463 166.09808361 68.21781784 165.625 57.1875 C165.36884452 52.9282873 165.21469883 51.32511537 162.8125 47.6875 C159.36555327 45.61933196 157.96080466 45.30103447 154 46 C152.13843645 46.93078177 150.27961796 47.86815159 148.4453125 48.8515625 C132.90471939 56.15017971 115.50089379 56.31298484 98.70654297 56.20581055 C95.76911619 56.18761839 92.83200847 56.18530131 89.89453125 56.18554688 C74.19700356 56.1571703 58.5761236 55.71964323 43 53.625 C42.06800781 53.5115625 41.13601562 53.398125 40.17578125 53.28125 C26.39240673 51.47422461 15.94687916 47.3647317 6.79296875 36.56640625 C0.99974903 28.27415057 -1.1481953 19.29807734 -1.125 9.3125 C-1.12757812 8.19488281 -1.13015625 7.07726562 -1.1328125 5.92578125 C-1 3 -1 3 0 0 Z " fill="#B06255" transform="translate(35,24)"/>
<path d="M0 0 C0.87355637 -0.0065712 1.74711273 -0.0131424 2.6471405 -0.01991272 C5.54194221 -0.0396429 8.43669196 -0.05130954 11.33154297 -0.0612793 C12.32152157 -0.06535482 13.31150017 -0.06943035 14.33147812 -0.07362938 C19.57433615 -0.09449188 24.81716802 -0.10879116 30.06005859 -0.11816406 C35.46362715 -0.12921099 40.86678193 -0.16359069 46.27020454 -0.20333576 C50.43450664 -0.22954339 54.59871092 -0.23785973 58.76308823 -0.24144554 C60.75409607 -0.24630309 62.74509979 -0.25789324 64.73602676 -0.27648354 C67.5313773 -0.30095647 70.32566782 -0.29989478 73.12109375 -0.29296875 C74.34186363 -0.31218384 74.34186363 -0.31218384 75.58729553 -0.33178711 C81.47188417 -0.27897567 86.41905558 1.03928978 91.44873047 4.17700195 C100.31958715 13.43908072 97.44873047 21.3357509 97.44873047 35.17700195 C57.84873047 35.17700195 18.24873047 35.17700195 -22.55126953 35.17700195 C-22.55126953 13.17700195 -22.55126953 13.17700195 -17.55126953 5.17700195 C-11.70910743 0.62011552 -7.20720771 0.02346208 0 0 Z " fill="#4ED1BA" transform="translate(329.55126953125,357.822998046875)"/>
<path d="M0 0 C1.30146973 -0.00478363 2.60293945 -0.00956726 3.94384766 -0.01449585 C6.68747935 -0.02183122 9.43029231 -0.01127236 12.17382812 0.01220703 C15.67100201 0.04069559 19.16625694 0.02427319 22.6633606 -0.00565529 C26.02572293 -0.02818338 29.38758335 -0.01235876 32.75 0 C34.61906006 -0.01518173 34.61906006 -0.01518173 36.52587891 -0.03067017 C43.68164422 0.06532809 48.95146621 0.72016617 54.375 5.6640625 C60.24104871 13.18463777 59.87175418 20.54440564 59.375 29.6640625 C58.11510634 37.67421211 53.53115769 43.06147339 47.52734375 48.265625 C41.6821358 52.06341892 35.7334971 51.97129533 29.0078125 51.96484375 C28.01425751 51.96912888 27.02070251 51.973414 25.99703979 51.97782898 C23.90086629 51.9835569 21.80467292 51.98408391 19.70849609 51.97973633 C16.51755511 51.97657987 13.32754505 52.00004317 10.13671875 52.02539062 C8.09375116 52.02766426 6.0507811 52.02836682 4.0078125 52.02734375 C3.06173126 52.0365535 2.11565002 52.04576324 1.14089966 52.05525208 C-6.83873527 52.00008632 -13.7713838 50.5176787 -19.625 44.6640625 C-26.74052541 34.81816106 -27.99161661 25.60127317 -26.625 13.6640625 C-24.92044521 8.01921129 -21.0851027 4.69482725 -16.14160156 1.70953369 C-10.98952095 -0.43079394 -5.49717625 -0.04465167 0 0 Z " fill="#282829" transform="translate(350.625,178.3359375)"/>
<path d="M0 0 C6.11128632 3.77402284 10.86147361 9.59785524 12.9609375 16.49609375 C14.32821125 23.22522536 13.44298338 29.35190057 10.359375 35.45703125 C5.98456088 41.84467064 1.01197903 46.62522682 -6.640625 48.45703125 C-15.00713715 49.6344565 -21.73307837 48.40803617 -28.640625 43.45703125 C-34.22064255 38.41534563 -37.21665353 33.70660579 -37.9765625 26.08984375 C-38.07080424 17.62693512 -37.71548394 11.82358291 -31.83984375 5.52734375 C-22.55676216 -3.1608996 -11.71912827 -5.28107213 0 0 Z " fill="#282828" transform="translate(413.640625,113.54296875)"/>
<path d="M0 0 C6.29678159 3.74603053 10.68355915 8.19110295 12.99609375 15.1875 C14.06106195 23.10605389 14.10027826 30.52665878 9.54296875 37.32421875 C4.18828416 43.77417974 -1.47612287 47.5078545 -9.86328125 48.5390625 C-17.12665718 48.88932682 -22.27518015 47.7396931 -28.00390625 43.1875 C-34.20440848 37.41003398 -38.03102541 31.50810665 -38.50390625 22.875 C-38.27191224 15.82818203 -35.84435807 10.34289731 -31.13671875 5.11328125 C-22.06664757 -3.30388598 -11.24209035 -5.7713405 0 0 Z " fill="#282828" transform="translate(345.00390625,113.8125)"/>
<path d="M0 0 C1.30485352 -0.01253311 2.60970703 -0.02506622 3.95410156 -0.03797913 C5.37045289 -0.02571045 6.78679464 -0.01229037 8.203125 0.00219727 C9.66373878 0.00136805 11.12435245 -0.00109334 12.58496094 -0.00511169 C15.64156283 -0.00796597 18.69743044 0.00669358 21.75390625 0.03417969 C25.66486559 0.06826323 29.57451249 0.06224153 33.48553467 0.04351711 C36.50027333 0.03293027 39.51470848 0.04189994 42.52941895 0.05690193 C43.97106016 0.06207194 45.41273322 0.06161629 46.85437012 0.05535698 C48.87170527 0.04988554 50.88905599 0.07317461 52.90625 0.09765625 C54.05254883 0.10385483 55.19884766 0.11005341 56.37988281 0.11643982 C60.13408368 0.74514097 61.79577936 1.94385296 64.453125 4.63110352 C65.515625 8.06860352 65.515625 8.06860352 65.453125 11.63110352 C63.36687161 15.05851981 62.2786939 16.35591388 58.453125 17.63110352 C56.37937254 17.75029237 54.30206856 17.81073872 52.22509766 17.83984375 C50.29762192 17.86877968 50.29762192 17.86877968 48.33120728 17.89830017 C46.92654426 17.91310523 45.52187005 17.92687898 44.1171875 17.93969727 C43.40906292 17.94626909 42.70093834 17.95284092 41.97135544 17.95961189 C38.22441352 17.99216954 34.47749965 18.01663141 30.73046875 18.03613281 C27.63206663 18.05395796 24.53457262 18.08879945 21.43652344 18.13867188 C17.69173035 18.1988792 13.94778012 18.22960772 10.20252609 18.2393055 C8.77752236 18.24785866 7.35254109 18.26667412 5.92781448 18.29604912 C-5.16567312 18.51249692 -5.16567312 18.51249692 -8.53741455 16.36087036 C-10.67632273 13.92164282 -11.52754737 11.72580889 -12.171875 8.56860352 C-10.76662416 1.96392457 -6.28688824 0.00527479 0 0 Z " fill="#282828" transform="translate(361.546875,460.368896484375)"/>
<path d="M0 0 C0.6461879 -0.01036789 1.29237579 -0.02073578 1.95814514 -0.03141785 C4.0827788 -0.05840473 6.20533616 -0.04884757 8.33007812 -0.03637695 C9.81311618 -0.04228898 11.29614946 -0.04953701 12.7791748 -0.05805969 C15.88282188 -0.0699252 18.98575114 -0.06325745 22.08935547 -0.04394531 C26.06121548 -0.02105128 30.03093721 -0.04784692 34.00258636 -0.08900738 C37.06368471 -0.11461653 40.12427337 -0.1119976 43.18544006 -0.10111427 C44.64943891 -0.09963025 46.11347733 -0.10728697 47.57737732 -0.12436485 C58.96653195 -0.23567676 58.96653195 -0.23567676 62.37426758 1.95956421 C64.32411365 4.20139689 65.28591223 6.35363665 65.98632812 9.2253418 C65.08184732 12.75281695 63.07978089 14.33273943 60.36132812 16.6628418 C57.62027338 18.03336917 55.40677534 17.81281431 52.33862305 17.83984375 C51.07358444 17.85267899 49.80854584 17.86551422 48.50517273 17.8787384 C47.11738475 17.88690602 45.72959236 17.89434971 44.34179688 17.90112305 C43.29478324 17.90723634 43.29478324 17.90723634 42.22661781 17.91347313 C38.53153402 17.93433401 34.83648736 17.94863513 31.14135742 17.95800781 C27.32799207 17.96906752 23.51521103 18.00346133 19.70205212 18.04317951 C16.76718576 18.06934871 13.8324585 18.0776999 10.89748573 18.08128929 C9.49207936 18.0861552 8.08667921 18.0977695 6.68138695 18.11632729 C4.71180692 18.14071831 2.74194266 18.13733395 0.7722168 18.1328125 C-0.90750969 18.14161186 -0.90750969 18.14161186 -2.62117004 18.15058899 C-6.32110503 17.55253371 -7.97441212 16.24552474 -10.63867188 13.6628418 C-12.08298042 10.7742247 -12.01555693 8.86636478 -11.63867188 5.6628418 C-8.03857368 1.12491625 -5.73988369 0.03448757 0 0 Z " fill="#292929" transform="translate(361.638671875,426.337158203125)"/>
<path d="M0 0 C0.53741432 7.15059614 0.03283675 12.91695016 -4 19 C-9.16724322 24.76092649 -13.98452345 27.64545074 -21.8046875 28.3359375 C-30.55646377 28.53191253 -37.3359383 28.37546706 -43.95703125 22.1640625 C-49.62994129 16.13298502 -51.29027128 11.10966387 -51.0637207 2.90600586 C-51.04269287 2.27702393 -51.02166504 1.64804199 -51 1 C-50.36980957 1.07001221 -49.73961914 1.14002441 -49.09033203 1.2121582 C-41.3415563 2.00240756 -33.66038007 2.18332777 -25.875 2.1875 C-24.05935547 2.20586914 -24.05935547 2.20586914 -22.20703125 2.22460938 C-14.62378523 2.23698682 -7.3750802 0 0 0 Z " fill="#EFA295" transform="translate(162,270)"/>
<path d="M0 0 C4.29 0 8.58 0 13 0 C13 19.47 13 38.94 13 59 C9.04 59 5.08 59 1 59 C-4.11271344 53.88728656 -4.11271344 53.88728656 -4.17700195 48.44604492 C-4.18983719 47.50133835 -4.20267242 46.55663177 -4.21589661 45.58329773 C-4.22328354 44.55936417 -4.23067047 43.5354306 -4.23828125 42.48046875 C-4.246353 41.42974686 -4.25442474 40.37902496 -4.26274109 39.29646301 C-4.27658815 37.06964776 -4.28730751 34.84281123 -4.29516602 32.6159668 C-4.31237781 29.21166724 -4.35625913 25.8083389 -4.40039062 22.40429688 C-4.41051745 20.24219465 -4.41903358 18.08008416 -4.42578125 15.91796875 C-4.44328934 14.90010788 -4.46079742 13.88224701 -4.47883606 12.83354187 C-4.47591049 11.87937881 -4.47298492 10.92521576 -4.4699707 9.94213867 C-4.47583694 9.1065593 -4.48170319 8.27097992 -4.48774719 7.41007996 C-4 5 -4 5 0 0 Z " fill="#CDD6DC" transform="translate(260,120)"/>
<path d="M0 0 C12 0 12 0 15.21508789 1.82202148 C17.8391922 6.49415468 17.66044643 10.57266426 17.55859375 15.84765625 C17.55509666 17.42092934 17.55509666 17.42092934 17.55152893 19.02598572 C17.54180127 21.23916783 17.52003695 23.4523254 17.48706055 25.6652832 C17.43762513 29.05392283 17.42557712 32.44111032 17.41992188 35.83007812 C17.40583644 37.98178629 17.38963224 40.13348185 17.37109375 42.28515625 C17.36573105 43.29876724 17.36036835 44.31237823 17.35484314 45.35670471 C17.33885574 46.30126022 17.32286835 47.24581573 17.30639648 48.21899414 C17.29043678 49.4621212 17.29043678 49.4621212 17.27415466 50.73036194 C16.96746828 53.26931958 16.37592812 54.8493587 15 57 C12 59 12 59 0 59 C0 39.53 0 20.06 0 0 Z " fill="#CCD5DB" transform="translate(461,120)"/>
<path d="M0 0 C1.505625 0.165 3.01125 0.33 4.5625 0.5 C20.00036414 1.77887632 35.57684284 1.17509769 51 0 C51 6.27 51 12.54 51 19 C34.17 19 17.34 19 0 19 C0 12.73 0 6.46 0 0 Z " fill="#CBD4DA" transform="translate(341,271)"/>
<path d="M0 0 C17.16 0 34.32 0 52 0 C52 11 52 11 50.09375 14.63769531 C45.84389934 17.88276752 42.72105098 17.86916316 37.5 17.796875 C36.58669922 17.80261536 35.67339844 17.80835571 34.73242188 17.81427002 C32.80596428 17.81834383 30.87942327 17.8073354 28.953125 17.78222656 C26.00853076 17.75009309 23.06942405 17.78193264 20.125 17.8203125 C18.24998792 17.81634748 16.37497924 17.80865978 14.5 17.796875 C13.18418945 17.81509308 13.18418945 17.81509308 11.84179688 17.8336792 C7.42857698 17.73242789 5.50327596 17.38428805 1.90625 14.63769531 C0 11 0 11 0 0 Z " fill="#2A54AA" transform="translate(341,196)"/>
<path d="M0 0 C6.07804316 2.8663499 11.51512916 6.18886938 17 10.0625 C17.77472656 10.59166016 18.54945313 11.12082031 19.34765625 11.66601562 C20.07855469 12.17970703 20.80945313 12.69339844 21.5625 13.22265625 C22.22378906 13.68422119 22.88507813 14.14578613 23.56640625 14.62133789 C24.03949219 15.07629639 24.51257813 15.53125488 25 16 C25 16.99 25 17.98 25 19 C19.5725148 23.95552997 16.72596238 25.36417056 9.54296875 25.28125 C5.80819582 24.86818756 3.76058172 23.49125668 1 21 C-1.74335824 17.21155291 -2.38899103 14.59168505 -2.3125 9.9375 C-2.30863281 8.91527344 -2.30476563 7.89304687 -2.30078125 6.83984375 C-2.00207828 4.01962216 -1.32249736 2.4564426 0 0 Z " fill="#F7AA9A" transform="translate(417,292)"/>
<path d="M0 0 C0.98742188 0.56589844 1.97484375 1.13179688 2.9921875 1.71484375 C4.28644206 2.45575759 5.58071379 3.19664145 6.875 3.9375 C7.52597656 4.31068359 8.17695312 4.68386719 8.84765625 5.06835938 C12.38746834 7.10133078 12.38746834 7.10133078 16 9 C15.30465183 11.05127711 14.60469376 13.10106391 13.88671875 15.14453125 C12.92580776 18.06053386 12.92580776 18.06053386 12.33203125 21.38671875 C11.54537188 24.95264168 10.8108771 27.82090465 9 31 C5.0864153 33.00120553 1.35755576 33.65057336 -3 34 C-3.61916858 10.21122564 -3.61916858 10.21122564 0 0 Z " fill="#9C564C" transform="translate(37,80)"/>
<path d="M0 0 C0.69867188 -0.01933594 1.39734375 -0.03867187 2.1171875 -0.05859375 C6.06043383 -0.02139331 7.85217208 0.50775045 10.96484375 2.9765625 C13 5.625 13 5.625 13.5625 8.625 C12.87206143 12.30733904 11.63186072 13.99313928 9 16.625 C5.70907406 17.72197531 3.08887841 17.8621983 -0.375 17.9375 C-1.49648438 17.97488281 -2.61796875 18.01226562 -3.7734375 18.05078125 C-7.65385586 17.53871636 -9.23562425 16.33408823 -12 13.625 C-13.44430855 10.73638291 -13.37688506 8.82852299 -13 5.625 C-9.23399696 0.67394196 -5.97458933 -0.16534841 0 0 Z " fill="#2C2D2D" transform="translate(320,426.375)"/>
<path d="M0 0 C3.66453177 2.30327905 4.77171678 3.26143663 6.0625 7.4375 C5.98713481 11.73331579 5.03450339 13.05219671 2 16 C-0.92247573 17.46123786 -3.55853839 17.2477615 -6.8125 17.3125 C-8.64748047 17.36857422 -8.64748047 17.36857422 -10.51953125 17.42578125 C-14.59773794 16.92687605 -16.16883897 15.92501167 -19 13 C-20.44227923 8.6731623 -20.3264539 6.74812352 -18.5 2.5625 C-14.15273782 -2.04411589 -5.69406587 -0.95313711 0 0 Z " fill="#2A2A2A" transform="translate(327,461)"/>
<path d="M0 0 C1.8046875 0.6015625 1.8046875 0.6015625 3.8046875 2.2265625 C5.23816962 5.63108253 5.31830419 7.94204357 4.8046875 11.6015625 C2.21838946 15.28507789 0.73493624 16.41883507 -3.6953125 17.2890625 C-7.1953125 16.6015625 -7.1953125 16.6015625 -10.1953125 14.0390625 C-12.1953125 10.6015625 -12.1953125 10.6015625 -12.3203125 6.9765625 C-10.15392327 0.4773948 -6.44585295 -1.24052264 0 0 Z " fill="#4ECFB9" transform="translate(336.1953125,128.3984375)"/>
<path d="M0 0 C3.88265681 0.72799815 5.46228253 1.50231129 8 4.5625 C8.71534153 7.70654141 8.71534153 10.41845859 8 13.5625 C5.46228253 16.62268871 3.88265681 17.39700185 0 18.125 C-4.13607554 17.34948584 -5.54999553 15.94927089 -8 12.5625 C-8.625 9.0625 -8.625 9.0625 -8 5.5625 C-5.54999553 2.17572911 -4.13607554 0.77551416 0 0 Z " fill="#4ED1BB" transform="translate(401,127.4375)"/>
</svg>
